<?xml version="1.0" encoding="UTF-8"?>
<!-- Uploaded to: SVG Repo, www.svgrepo.com, Transformed by: SVG Repo Mixer Tools -->
<svg xmlns="http://www.w3.org/2000/svg" width="800px" height="800px" viewBox="0 0 24 24" fill="none">
  <g id="SVGRepo_bgCarrier" stroke-width="0"></g>
  <g id="SVGRepo_tracerCarrier" stroke-linecap="round" stroke-linejoin="round"></g>
  <g id="SVGRepo_iconCarrier">
    <path opacity="0.15" d="M21 18V6.00001C21 5.72387 20.8881 5.47387 20.7071 5.29291L20.5 5.50001L13.4142 12.5858C12.6332 13.3668 11.3668 13.3668 10.5858 12.5858L3.5 5.50001L3.29289 5.29291C3.11193 5.47387 3 5.72387 3 6.00001V18C3 18.5523 3.44772 19 4 19H20C20.5523 19 21 18.5523 21 18Z" fill="#0ba2ba"></path>
    <path d="M3.29289 5.29289C3.47386 5.11193 3.72386 5 4 5H20C20.2761 5 20.5261 5.11193 20.7071 5.29289M3.29289 5.29289C3.11193 5.47386 3 5.72386 3 6V18C3 18.5523 3.44772 19 4 19H20C20.5523 19 21 18.5523 21 18V6C21 5.72386 20.8881 5.47386 20.7071 5.29289M3.29289 5.29289L10.5858 12.5858C11.3668 13.3668 12.6332 13.3668 13.4142 12.5858L20.7071 5.29289" stroke="#0ba2ba" stroke-width="1.5" stroke-linecap="round" stroke-linejoin="round"></path>
  </g>
</svg>
