<?xml version="1.0" encoding="UTF-8" standalone="no"?>
<svg
   version="1.1"
   width="256"
   height="256"
   viewBox="0 0 256 256"
   xml:space="preserve"
   id="svg1"
   sodipodi:docname="bluesky-color.svg"
   inkscape:version="1.4 (e7c3feb100, 2024-10-09)"
   xmlns:inkscape="http://www.inkscape.org/namespaces/inkscape"
   xmlns:sodipodi="http://sodipodi.sourceforge.net/DTD/sodipodi-0.dtd"
   xmlns="http://www.w3.org/2000/svg"
   xmlns:svg="http://www.w3.org/2000/svg"><sodipodi:namedview
   id="namedview1"
   pagecolor="#ffffff"
   bordercolor="#000000"
   borderopacity="0.25"
   inkscape:showpageshadow="2"
   inkscape:pageopacity="0.0"
   inkscape:pagecheckerboard="0"
   inkscape:deskcolor="#d1d1d1"
   inkscape:zoom="3.046875"
   inkscape:cx="124.71795"
   inkscape:cy="128"
   inkscape:window-width="1292"
   inkscape:window-height="991"
   inkscape:window-x="26"
   inkscape:window-y="23"
   inkscape:window-maximized="0"
   inkscape:current-layer="svg1" />

<defs
   id="defs1">
</defs>
<g
   style="opacity:1;fill:#0ba2ba;fill-opacity:1;fill-rule:nonzero;stroke:#0ba2ba;stroke-width:5.51936;stroke-linecap:butt;stroke-linejoin:miter;stroke-miterlimit:10;stroke-dasharray:none;stroke-opacity:1"
   transform="matrix(2.656446,0,0,2.5908715,8.7390892,9.3599957)"
   id="g1">
	<path
   d="m 28.752,84.74 c -4.278,0 -8.909,-2.531 -13.802,-7.552 -4.529,-4.647 -6.255,-9.564 -4.861,-13.844 1.188,-3.649 4.507,-6.611 9.587,-8.66 C 12.174,53.893 4.955,50.149 2.481,41.31 1.515,37.855 0,17.743 0,15.236 0,10.501 1.402,7.399 4.166,6.018 8.728,3.74 15.686,6.929 20.675,10.675 l -0.601,0.8 0.601,-0.8 C 30.209,17.833 40.418,31.863 45,40.447 49.583,31.863 59.792,17.831 69.325,10.675 74.314,6.929 81.274,3.741 85.834,6.018 88.599,7.399 90,10.501 90,15.236 c 0,2.506 -1.515,22.617 -2.481,26.073 -2.474,8.839 -9.694,12.582 -17.194,13.375 5.081,2.049 8.398,5.01 9.588,8.66 1.394,4.279 -0.333,9.196 -4.862,13.844 -5.795,5.946 -11.224,8.401 -16.132,7.293 C 50.955,82.685 46.712,71.931 45,67.04 43.288,71.933 39.048,82.683 31.084,84.481 30.319,84.654 29.542,84.74 28.752,84.74 Z M 28.214,52.396 c 0.479,0 0.902,0.345 0.985,0.832 0.093,0.545 -0.273,1.062 -0.818,1.153 -9.06,1.542 -14.881,4.945 -16.392,9.583 -1.169,3.59 0.35,7.68 4.393,11.828 5.279,5.417 10.076,7.685 14.261,6.738 7.552,-1.705 11.538,-13.406 12.847,-17.251 0.511,-1.499 0.724,-2.094 1.509,-2.037 0.801,-0.056 0.999,0.539 1.509,2.037 1.312,3.848 5.3,15.547 12.85,17.251 4.191,0.951 8.983,-1.322 14.26,-6.738 4.042,-4.148 5.562,-8.238 4.392,-11.828 -1.511,-4.638 -7.331,-8.041 -16.391,-9.583 -0.544,-0.092 -0.91,-0.608 -0.817,-1.153 0.092,-0.544 0.611,-0.91 1.153,-0.817 8.97,1.526 20.549,-0.604 23.638,-11.64 C 86.473,37.624 88,17.893 88,15.236 88,11.321 86.971,8.821 84.94,7.807 81.424,6.055 75.171,8.787 70.526,12.274 60.559,19.755 49.821,34.973 45.901,43.082 c -0.334,0.691 -1.467,0.691 -1.801,0 C 40.18,34.974 29.442,19.756 19.475,12.274 14.829,8.787 8.569,6.051 5.06,7.808 3.029,8.822 2,11.321 2,15.236 2,17.893 3.527,37.625 4.407,40.77 7.494,51.8 19.064,53.933 28.038,52.411 c 0.003,-0.002 0.006,-0.001 0.007,-0.001 0.058,-0.01 0.114,-0.014 0.169,-0.014 z"
   style="opacity:1;fill:#0ba2ba;fill-opacity:1;fill-rule:nonzero;stroke:#0ba2ba;stroke-width:5.51936;stroke-linecap:butt;stroke-linejoin:miter;stroke-miterlimit:10;stroke-dasharray:none;stroke-opacity:1"
   stroke-linecap="round"
   id="path1" />
</g>
<path
   style="opacity:0.18;fill:#0ba2ba;fill-opacity:1;stroke:#000000;stroke-width:1.57834;stroke-dasharray:none"
   d="m 80.047114,215.63949 c -6.420881,-1.68356 -14.284931,-6.97886 -22.235307,-14.97226 -8.745149,-8.79247 -12.134859,-16.51651 -10.107272,-23.03115 2.693332,-8.6537 14.761224,-15.5785 33.86571,-19.43282 6.14503,-1.23976 7.785708,-1.91952 9.657308,-4.00119 1.916173,-2.13124 2.602506,-4.22718 2.402872,-7.33793 -0.174625,-2.72099 -1.0908,-4.6318 -3.04239,-6.34532 -2.912318,-2.55705 -5.201132,-3.00685 -11.274555,-2.2157 -4.633544,0.60358 -13.625288,0.69723 -17.783627,0.18521 C 43.476228,136.26536 31.210094,126.89052 27.621714,112.57279 26.254416,107.11724 23.47233,79.584942 21.950742,56.451282 21.33653,47.113028 21.541877,43.34231 22.855891,39.830292 c 1.536683,-4.107155 3.982994,-5.03643 10.17452,-3.864975 7.566761,1.431653 17.530848,6.656289 26.672005,13.985376 19.753039,15.837358 44.069634,45.835951 58.054594,71.620067 2.44354,4.50514 3.62574,5.86286 6.14043,7.05202 1.47536,0.69768 2.28478,0.85367 4.43077,0.85388 4.55797,4.6e-4 7.45462,-1.979 9.84654,-6.72872 2.91814,-5.79466 9.74362,-16.77506 15.19856,-24.450504 14.57659,-20.510172 30.08937,-37.699853 44.04207,-48.802944 11.91953,-9.48515 26.19932,-15.472912 32.63748,-13.685449 3.8014,1.055406 5.35305,6.841036 4.73977,17.673115 -0.94878,16.757556 -3.72972,46.447504 -5.2181,55.709492 -2.44309,15.20317 -13.03894,25.19269 -30.41983,28.67912 -5.13501,1.03003 -15.19622,1.25007 -21.50375,0.4703 -5.17639,-0.63994 -7.17454,-0.52753 -9.27566,0.52182 -6.09224,3.04262 -7.4513,11.1404 -2.65197,15.80145 1.79548,1.74375 3.39253,2.35767 9.10316,3.49934 20.5822,4.11479 32.82857,11.71576 34.4755,21.39794 0.68314,4.01611 -1.03304,9.18119 -4.86346,14.63732 -2.25281,3.20895 -10.51627,11.3275 -14.73596,14.47754 -4.13245,3.08493 -10.43627,6.37521 -13.62051,7.10923 -6.78307,1.56361 -12.39604,-0.25431 -18.21211,-5.89853 -6.58723,-6.39257 -12.20599,-16.43601 -17.71866,-31.6718 -1.20831,-3.33948 -2.69538,-6.83602 -3.30459,-7.77009 -1.21084,-1.85648 -3.19049,-3.38586 -5.23643,-4.0454 -1.55575,-0.50153 -1.59515,-0.55264 -2.49584,-3.23767 -0.78884,-2.35159 -0.89501,-2.30603 -1.94941,0.8365 -0.60826,1.81286 -0.79272,2.05277 -1.7281,2.24756 -1.51762,0.31605 -3.5923,1.5936 -4.7745,2.94004 -1.38379,1.57605 -2.1469,3.14388 -3.81854,7.84519 -7.94299,22.33884 -17.198177,35.57397 -26.991822,38.59891 -2.706986,0.83611 -6.636849,0.83974 -9.804934,0.009 z"
   id="path3" /></svg>
