<?xml version="1.0" encoding="UTF-8" standalone="no"?>
<svg
   version="1.1"
   width="256"
   height="256"
   viewBox="0 0 256 256"
   xml:space="preserve"
   id="svg1"
   sodipodi:docname="bluesky-black.svg"
   inkscape:version="1.4 (e7c3feb100, 2024-10-09)"
   xmlns:inkscape="http://www.inkscape.org/namespaces/inkscape"
   xmlns:sodipodi="http://sodipodi.sourceforge.net/DTD/sodipodi-0.dtd"
   xmlns="http://www.w3.org/2000/svg"
   xmlns:svg="http://www.w3.org/2000/svg"><sodipodi:namedview
   id="namedview1"
   pagecolor="#ffffff"
   bordercolor="#000000"
   borderopacity="0.25"
   inkscape:showpageshadow="2"
   inkscape:pageopacity="0.0"
   inkscape:pagecheckerboard="0"
   inkscape:deskcolor="#d1d1d1"
   inkscape:zoom="3.046875"
   inkscape:cx="124.88205"
   inkscape:cy="128"
   inkscape:window-width="1513"
   inkscape:window-height="991"
   inkscape:window-x="26"
   inkscape:window-y="23"
   inkscape:window-maximized="0"
   inkscape:current-layer="svg1" />

<defs
   id="defs1">
</defs>
<g
   style="opacity:1;fill:#0ba2ba;fill-opacity:1;fill-rule:nonzero;stroke:#000000;stroke-width:5.58538503;stroke-linecap:butt;stroke-linejoin:miter;stroke-miterlimit:10;stroke-dasharray:none;stroke-opacity:1"
   transform="matrix(2.656446,0,0,2.5908715,8.7390892,9.3599957)"
   id="g1">
	<path
   d="m 28.752,84.74 c -4.278,0 -8.909,-2.531 -13.802,-7.552 -4.529,-4.647 -6.255,-9.564 -4.861,-13.844 1.188,-3.649 4.507,-6.611 9.587,-8.66 C 12.174,53.893 4.955,50.149 2.481,41.31 1.515,37.855 0,17.743 0,15.236 0,10.501 1.402,7.399 4.166,6.018 8.728,3.74 15.686,6.929 20.675,10.675 l -0.601,0.8 0.601,-0.8 C 30.209,17.833 40.418,31.863 45,40.447 49.583,31.863 59.792,17.831 69.325,10.675 74.314,6.929 81.274,3.741 85.834,6.018 88.599,7.399 90,10.501 90,15.236 c 0,2.506 -1.515,22.617 -2.481,26.073 -2.474,8.839 -9.694,12.582 -17.194,13.375 5.081,2.049 8.398,5.01 9.588,8.66 1.394,4.279 -0.333,9.196 -4.862,13.844 -5.795,5.946 -11.224,8.401 -16.132,7.293 C 50.955,82.685 46.712,71.931 45,67.04 43.288,71.933 39.048,82.683 31.084,84.481 30.319,84.654 29.542,84.74 28.752,84.74 Z M 28.214,52.396 c 0.479,0 0.902,0.345 0.985,0.832 0.093,0.545 -0.273,1.062 -0.818,1.153 -9.06,1.542 -14.881,4.945 -16.392,9.583 -1.169,3.59 0.35,7.68 4.393,11.828 5.279,5.417 10.076,7.685 14.261,6.738 7.552,-1.705 11.538,-13.406 12.847,-17.251 0.511,-1.499 0.724,-2.094 1.509,-2.037 0.801,-0.056 0.999,0.539 1.509,2.037 1.312,3.848 5.3,15.547 12.85,17.251 4.191,0.951 8.983,-1.322 14.26,-6.738 4.042,-4.148 5.562,-8.238 4.392,-11.828 -1.511,-4.638 -7.331,-8.041 -16.391,-9.583 -0.544,-0.092 -0.91,-0.608 -0.817,-1.153 0.092,-0.544 0.611,-0.91 1.153,-0.817 8.97,1.526 20.549,-0.604 23.638,-11.64 C 86.473,37.624 88,17.893 88,15.236 88,11.321 86.971,8.821 84.94,7.807 81.424,6.055 75.171,8.787 70.526,12.274 60.559,19.755 49.821,34.973 45.901,43.082 c -0.334,0.691 -1.467,0.691 -1.801,0 C 40.18,34.974 29.442,19.756 19.475,12.274 14.829,8.787 8.569,6.051 5.06,7.808 3.029,8.822 2,11.321 2,15.236 2,17.893 3.527,37.625 4.407,40.77 7.494,51.8 19.064,53.933 28.038,52.411 c 0.003,-0.002 0.006,-0.001 0.007,-0.001 0.058,-0.01 0.114,-0.014 0.169,-0.014 z"
   style="opacity:1;fill:#0ba2ba;fill-opacity:1;fill-rule:nonzero;stroke:#000000;stroke-width:5.58538503;stroke-linecap:butt;stroke-linejoin:miter;stroke-miterlimit:10;stroke-dasharray:none;stroke-opacity:1"
   stroke-linecap="round"
   id="path1" />
</g>
<path
   style="opacity:0.18;fill:#000000;fill-opacity:1;stroke:#000000;stroke-width:4.80919;stroke-dasharray:none;stroke-opacity:1"
   d="m 82.051282,216.07879 c -5.104948,-0.96679 -11.751191,-4.57388 -17.966897,-9.75113 -8.490303,-7.07183 -13.977324,-13.94674 -16.019331,-20.07125 -0.748279,-2.24428 -0.855806,-3.03688 -0.740326,-5.45701 0.111917,-2.34545 0.312186,-3.19035 1.16693,-4.92308 4.006461,-8.12185 16.36968,-14.48195 34.919624,-17.96393 5.290844,-0.99314 7.744423,-2.52684 9.524175,-5.95342 0.628004,-1.2091 0.767107,-1.98279 0.767107,-4.26666 0,-2.47465 -0.109223,-2.98692 -0.967023,-4.53542 -1.080796,-1.95105 -2.477184,-3.30553 -4.539537,-4.40329 -1.171098,-0.62336 -1.894134,-0.73748 -4.667799,-0.73676 -1.805128,4.8e-4 -4.716229,0.1838 -6.469117,0.40739 -9.453184,1.20583 -20.957446,-0.14913 -29.098111,-3.42714 C 36.546788,130.40093 29.082797,121.30734 27.131953,109.62051 25.521649,99.973744 22.24231,64.084333 21.793869,51.2 21.434773,40.882655 23.159602,36.313285 27.66848,35.637137 c 5.004488,-0.750469 15.957275,3.284989 24.830047,9.148411 14.382087,9.504162 32.522962,28.482784 48.796903,51.050349 6.29219,8.725573 12.62017,18.718153 16.67403,26.330143 2.24505,4.21556 4.10081,6.08388 6.92543,6.97234 3.65396,1.1493 8.33015,0.1095 10.7457,-2.38943 0.64355,-0.66577 2.15834,-3.05664 3.36619,-5.31305 13.7474,-25.681873 39.34851,-56.956518 59.55732,-72.75601 9.57842,-7.488524 21.52881,-12.929655 28.55385,-13.00086 3.20516,-0.03249 4.59629,0.565498 5.68793,2.444983 1.8615,3.204955 2.40739,7.868634 1.87632,16.029833 -1.82572,28.056783 -4.63544,54.823344 -6.30473,60.061534 -5.0124,15.72882 -20.1407,24.65575 -41.69787,24.60515 -2.39891,-0.006 -6.13396,-0.22408 -8.30011,-0.48544 -7.3532,-0.88721 -9.44407,-0.53971 -12.32213,2.04791 -2.27,2.04093 -3.01322,3.60625 -3.20038,6.74045 -0.19131,3.20391 0.43585,5.00146 2.5313,7.25513 1.95504,2.10264 3.23065,2.63589 9.14609,3.82339 21.42049,4.30007 33.92388,12.28636 34.75328,22.19798 0.51352,6.13677 -3.43153,13.22373 -11.96177,21.48832 -9.58143,9.28305 -18.75594,14.39891 -25.82224,14.39891 -11.51946,0 -21.97539,-12.70737 -31.19137,-37.90769 -1.12225,-3.06872 -2.3693,-6.2239 -2.77122,-7.0115 -1.34183,-2.62951 -3.73706,-4.47233 -7.07951,-5.44677 -0.18051,-0.0526 -0.69207,-1.14797 -1.1368,-2.43409 -0.44472,-1.28613 -0.90494,-2.33841 -1.0227,-2.33841 -0.11776,0 -0.60735,1.07819 -1.08798,2.39597 -0.85026,2.33127 -0.91236,2.40628 -2.29956,2.7773 -1.83811,0.49162 -4.03432,2.16807 -5.2968,4.04325 -0.54873,0.81503 -1.7133,3.46858 -2.58793,5.89678 -8.24935,22.90218 -16.88589,35.57539 -26.645616,39.09966 -1.892414,0.68336 -6.443146,1.07498 -8.332872,0.71711 z"
   id="path2" /></svg>
