<?xml version="1.0" encoding="UTF-8" standalone="no"?>
<svg
   shape-rendering="geometricPrecision"
   text-rendering="geometricPrecision"
   image-rendering="optimizeQuality"
   fill-rule="evenodd"
   clip-rule="evenodd"
   viewBox="0 0 509.10773 462.01989"
   version="1.1"
   id="svg1"
   width="509.10773"
   height="462.0199"
   xmlns="http://www.w3.org/2000/svg"
   xmlns:svg="http://www.w3.org/2000/svg">
  <defs
     id="defs1" />
  <path
     style="display:inline;opacity:1;fill:#0ba2ba;fill-opacity:1;stroke-width:0.779123"
     d="M 11.484656,460.26686 C 13.541762,457.99681 173.11242,275.33769 184.10411,262.67091 l 8.35871,-9.63256 -1.69623,-2.44385 C 187.00037,245.16829 148.54458,194.71697 18.164714,24.152811 L 0,0.38956145 79.684872,0.188792 C 123.51155,0.07836878 159.74701,0.1316111 160.2081,0.3071082 c 0.89622,0.34110324 2.48416,2.4153252 67.36536,87.9945538 23.33746,30.782428 43.05337,56.727228 43.81313,57.655098 l 1.38141,1.68703 3.20425,-3.50605 c 1.76234,-1.92833 30.91267,-35.14818 64.77851,-73.821897 L 402.32503,0 h 38.53273 c 36.28007,0 38.47022,0.0780381 37.46343,1.3348709 -0.58811,0.734179 -33.68532,38.6872041 -73.54934,84.3400561 -84.43609,96.697423 -93.75056,107.440443 -94.71364,109.239983 -0.86493,1.61614 -8.80719,-9.08086 108.36522,145.95137 49.55226,65.56319 90.35579,119.64406 90.67452,120.17971 0.46205,0.7765 -15.28763,0.9739 -77.70446,0.9739 h -78.28396 l -47.85035,-62.52461 c -48.71646,-63.65634 -72.34991,-94.45442 -74.79182,-97.46543 l -1.36082,-1.67796 -3.31392,3.71234 c -1.82266,2.0418 -33.64128,38.39337 -70.70806,80.78128 l -67.39413,77.06891 -38.897177,0.0527 -38.8971774,0.0527 z M 417.25323,415.28253 c 0.49029,-0.79329 -6.76411,-10.45336 -178.02339,-237.05886 L 137.5543,43.689433 114.81094,43.660158 c -14.41605,-0.01856 -22.920406,0.25717 -23.226874,0.753055 -0.567552,0.918313 -3.831633,-3.385211 157.384814,207.503707 l 125.43878,164.0878 21.18512,0.0235 c 13.12521,0.0145 21.36596,-0.26915 21.66045,-0.74565 z"
     id="path9" />
  <path
     style="opacity:1;fill:#d8f1f4;fill-opacity:0.1;stroke-width:0.779123"
     d="m 385.54892,415.44214 -8.72638,-0.21993 -3.73959,-4.45481 c -2.05677,-2.45014 -3.9526,-4.6301 -4.21295,-4.84436 -0.26035,-0.21426 -5.8807,-7.40167 -12.48967,-15.97202 -6.60898,-8.57035 -13.77542,-17.86139 -15.92543,-20.64676 -11.61608,-15.04875 -22.7907,-29.7216 -37.71752,-49.52503 -3.20891,-4.25728 -6.03111,-7.9158 -6.27154,-8.13006 -0.24043,-0.21426 -3.47071,-4.42153 -7.1784,-9.34948 -3.70769,-4.92795 -8.89651,-11.76475 -11.5307,-15.19289 -2.6342,-3.42815 -7.27425,-9.56374 -10.31124,-13.63466 -3.03699,-4.07091 -5.73811,-7.57697 -6.00248,-7.79122 -0.44688,-0.36216 -5.67369,-7.15963 -22.76558,-29.60668 -3.7523,-4.92795 -9.51272,-12.46596 -12.80093,-16.75114 -17.48283,-22.78349 -22.59656,-29.46683 -35.69268,-46.64821 -8.91839,-11.70044 -18.6255,-24.36926 -29.99569,-39.1476 -4.90635,-6.37701 -11.54182,-15.10061 -14.7455,-19.38578 -3.20367,-4.28518 -6.04485,-7.96653 -6.31373,-8.18079 -0.52113,-0.41526 -11.34324,-14.555738 -21.46627,-28.048428 -3.37574,-4.499435 -7.03026,-9.269654 -8.12115,-10.600486 -1.09088,-1.330833 -2.68463,-3.410813 -3.54167,-4.62218 -0.85703,-1.211366 -2.9664,-3.979161 -4.68747,-6.150656 -4.898029,-6.179895 -7.670442,-10.54892 -7.073027,-11.146335 0.301065,-0.301065 9.685387,-0.687528 20.854047,-0.858807 l 20.30664,-0.311415 2.60692,2.930253 c 3.29407,3.702638 7.3456,8.943752 23.77806,30.759626 7.26241,9.641646 13.80958,18.294955 14.54926,19.229575 0.73969,0.934621 1.87079,2.438946 2.51356,3.342943 1.05206,1.47961 20.30875,27.10303 26.10062,34.73012 1.28555,1.69289 2.59504,3.42891 2.90997,3.85781 0.31492,0.42891 1.39489,1.83164 2.39991,3.11719 1.42904,1.82792 16.66426,22.00868 19.41027,25.71106 0.31781,0.42852 1.3989,1.83094 2.4024,3.11649 1.00349,1.28555 6.16424,8.12236 11.46831,15.1929 5.30408,7.07054 9.83958,13.03083 10.07891,13.24509 0.23932,0.21426 5.6634,7.40167 12.05351,15.97202 6.39011,8.57035 11.81995,15.75776 12.06633,15.97202 0.24637,0.21426 5.17305,6.70045 10.94818,14.41377 5.77512,7.71332 10.8589,14.4503 11.29728,14.97108 1.20683,1.43367 1.57388,1.9183 12.85995,16.97912 5.77756,7.70992 10.78681,14.36866 11.13166,14.79718 1.8561,2.30643 15.10182,19.90091 16.84104,22.37021 1.12037,1.59068 2.49599,2.90545 3.05692,2.92171 0.56094,0.0163 0.83849,0.32308 0.61677,0.68183 -0.22171,0.35874 3.45167,5.70547 8.16309,11.88162 4.71141,6.17615 9.16704,12.04419 9.90139,13.04009 7.9012,10.71526 15.30082,20.2439 16.5187,21.27147 0.82575,0.6967 1.36649,1.40161 1.20164,1.56646 -0.16484,0.16485 1.34013,2.4475 3.3444,5.07255 2.00427,2.62505 6.93749,9.0885 10.96269,14.36321 8.69596,11.39534 8.16059,10.70928 10.38435,13.30705 0.97634,1.14056 2.30107,2.83864 2.94385,3.77351 0.64278,0.93487 1.78224,2.42192 2.53215,3.30455 0.74991,0.88264 1.36346,1.83564 1.36346,2.11779 0,0.28214 0.69621,1.26028 1.54712,2.17363 1.40045,1.50321 1.4321,1.77565 0.33391,2.87384 -0.66726,0.66726 -2.32763,1.24374 -3.6897,1.28105 -1.36208,0.0373 -5.45665,0.30027 -9.09905,0.58434 -3.6424,0.28408 -10.54941,0.41753 -15.34892,0.29657 z"
     id="path28" />
</svg>
