<?xml version="1.0" encoding="UTF-8" standalone="no"?>
<svg
   shape-rendering="geometricPrecision"
   text-rendering="geometricPrecision"
   image-rendering="optimizeQuality"
   fill-rule="evenodd"
   clip-rule="evenodd"
   viewBox="0 0 509.10773 462.01989"
   version="1.1"
   id="svg1"
   width="509.10773"
   height="462.0199"
   xmlns="http://www.w3.org/2000/svg"
   xmlns:svg="http://www.w3.org/2000/svg">
  <defs
     id="defs1" />
  <path
     style="display:inline;opacity:1;fill:#0ba2ba;fill-opacity:1;stroke-width:0.779123"
     d="M 11.484656,460.26686 C 13.541762,457.99681 173.11242,275.33769 184.10411,262.67091 l 8.35871,-9.63256 -1.69623,-2.44385 C 187.00037,245.16829 148.54458,194.71697 18.164714,24.152811 L 0,0.38956145 79.684872,0.188792 C 123.51155,0.07836878 159.74701,0.1316111 160.2081,0.3071082 c 0.89622,0.34110324 2.48416,2.4153252 67.36536,87.9945538 23.33746,30.782428 43.05337,56.727228 43.81313,57.655098 l 1.38141,1.68703 3.20425,-3.50605 c 1.76234,-1.92833 30.91267,-35.14818 64.77851,-73.821897 L 402.32503,0 h 38.53273 c 36.28007,0 38.47022,0.0780381 37.46343,1.3348709 -0.58811,0.734179 -33.68532,38.6872041 -73.54934,84.3400561 -84.43609,96.697423 -93.75056,107.440443 -94.71364,109.239983 -0.86493,1.61614 -8.80719,-9.08086 108.36522,145.95137 49.55226,65.56319 90.35579,119.64406 90.67452,120.17971 0.46205,0.7765 -15.28763,0.9739 -77.70446,0.9739 h -78.28396 l -47.85035,-62.52461 c -48.71646,-63.65634 -72.34991,-94.45442 -74.79182,-97.46543 l -1.36082,-1.67796 -3.31392,3.71234 c -1.82266,2.0418 -33.64128,38.39337 -70.70806,80.78128 l -67.39413,77.06891 -38.897177,0.0527 -38.8971774,0.0527 z M 417.25323,415.28253 c 0.49029,-0.79329 -6.76411,-10.45336 -178.02339,-237.05886 L 137.5543,43.689433 114.81094,43.660158 c -14.41605,-0.01856 -22.920406,0.25717 -23.226874,0.753055 -0.567552,0.918313 -3.831633,-3.385211 157.384814,207.503707 l 125.43878,164.0878 21.18512,0.0235 c 13.12521,0.0145 21.36596,-0.26915 21.66045,-0.74565 z"
     id="path9" />
  <path
     style="opacity:1;fill:#d8f1f4;fill-opacity:0.7;stroke-width:0.779123"
     d="m 367.67724,405.3387 c -4.1883,-5.4636 -9.23119,-12.03745 -11.20643,-14.60856 -1.97524,-2.5711 -13.36278,-17.47183 -25.30564,-33.11272 -11.94286,-15.64089 -26.81919,-35.09949 -33.05851,-43.24132 -19.33202,-25.22682 -30.02545,-39.21888 -41.38336,-54.14905 -4.40085,-5.78498 -10.3005,-13.4983 -13.11033,-17.1407 -2.80983,-3.6424 -19.97566,-26.08114 -38.14628,-49.86387 -18.17063,-23.78272 -34.78871,-45.52025 -36.92906,-48.30562 -2.14036,-2.78536 -9.19834,-12.03519 -15.68442,-20.55518 -6.48607,-8.51999 -15.48919,-20.26526 -20.00692,-26.100618 -4.51773,-5.835353 -13.09295,-17.047313 -19.05604,-24.915466 -5.9631,-7.868152 -11.29284,-14.47874 -11.84388,-14.690194 -0.55105,-0.211455 -0.82274,-0.674342 -0.60378,-1.028637 0.21897,-0.354295 -0.3966,-1.200823 -1.367942,-1.881171 -0.97133,-0.680348 -1.719568,-1.4932 -1.662747,-1.806335 0.150694,-0.830466 -4.537024,-7.191884 -5.299687,-7.191884 -0.355875,0 -0.647046,-0.495991 -0.647046,-1.102204 0,-1.427058 5.336773,-1.697268 27.416512,-1.388141 l 16.89835,0.236584 17.38306,23.018473 c 9.56068,12.660159 21.06441,27.864014 25.56385,33.786343 7.68793,10.11915 32.79407,43.27458 63.90705,84.39633 7.5095,9.92523 24.49363,32.4207 37.7425,49.98992 13.24888,17.56922 25.70924,34.04767 27.6897,36.61878 1.98046,2.57111 9.69017,12.73866 17.1327,22.59456 7.44253,9.85591 17.78319,23.52952 22.97924,30.3858 5.19606,6.85628 21.23191,28.0679 35.63524,47.13693 14.40333,19.06904 26.91725,35.44517 27.80872,36.39143 0.89146,0.94624 1.62084,1.97546 1.62084,2.28715 0,0.31168 0.76233,1.37816 1.69406,2.36994 l 1.69406,1.80324 h -21.11936 -21.11937 z"
     id="path17" />
</svg>
