<?xml version="1.0" encoding="UTF-8" standalone="no"?>
<svg
   shape-rendering="geometricPrecision"
   text-rendering="geometricPrecision"
   image-rendering="optimizeQuality"
   fill-rule="evenodd"
   clip-rule="evenodd"
   viewBox="0 0 509.10773 462.01989"
   version="1.1"
   id="svg1"
   width="509.10773"
   height="462.0199"
   xmlns="http://www.w3.org/2000/svg"
   xmlns:svg="http://www.w3.org/2000/svg">
  <defs
     id="defs1" />
  <path
     style="display:inline;opacity:1;fill:#000000;fill-opacity:1;stroke-width:0.779123"
     d="M 11.484656,460.26686 C 13.541762,457.99681 173.11242,275.33769 184.10411,262.67091 l 8.35871,-9.63256 -1.69623,-2.44385 C 187.00037,245.16829 148.54458,194.71697 18.164714,24.152811 L 0,0.38956145 79.684872,0.188792 C 123.51155,0.07836878 159.74701,0.1316111 160.2081,0.3071082 c 0.89622,0.34110324 2.48416,2.4153252 67.36536,87.9945538 23.33746,30.782428 43.05337,56.727228 43.81313,57.655098 l 1.38141,1.68703 3.20425,-3.50605 c 1.76234,-1.92833 30.91267,-35.14818 64.77851,-73.821897 L 402.32503,0 h 38.53273 c 36.28007,0 38.47022,0.0780381 37.46343,1.3348709 -0.58811,0.734179 -33.68532,38.6872041 -73.54934,84.3400561 -84.43609,96.697423 -93.75056,107.440443 -94.71364,109.239983 -0.86493,1.61614 -8.80719,-9.08086 108.36522,145.95137 49.55226,65.56319 90.35579,119.64406 90.67452,120.17971 0.46205,0.7765 -15.28763,0.9739 -77.70446,0.9739 h -78.28396 l -47.85035,-62.52461 c -48.71646,-63.65634 -72.34991,-94.45442 -74.79182,-97.46543 l -1.36082,-1.67796 -3.31392,3.71234 c -1.82266,2.0418 -33.64128,38.39337 -70.70806,80.78128 l -67.39413,77.06891 -38.897177,0.0527 -38.8971774,0.0527 z M 417.25323,415.28253 c 0.49029,-0.79329 -6.76411,-10.45336 -178.02339,-237.05886 L 137.5543,43.689433 114.81094,43.660158 c -14.41605,-0.01856 -22.920406,0.25717 -23.226874,0.753055 -0.567552,0.918313 -3.831633,-3.385211 157.384814,207.503707 l 125.43878,164.0878 21.18512,0.0235 c 13.12521,0.0145 21.36596,-0.26915 21.66045,-0.74565 z"
     id="path9" />
  <path
     style="fill:#d7d7d7;fill-opacity:0.0462754;stroke-width:0.777811"
     d="m 372.5716,410.14328 c -1.92508,-2.61606 -4.7252,-6.24812 -6.22249,-8.07124 -1.49729,-1.82311 -3.77238,-4.79953 -5.05577,-6.61423 -1.28339,-1.81471 -3.55849,-4.78773 -5.05578,-6.60671 -1.49728,-1.81898 -4.47241,-5.66598 -6.61139,-8.5489 -3.75387,-5.05945 -5.64475,-7.54889 -18.27857,-24.06464 -3.20847,-4.19432 -7.75866,-10.14458 -10.11154,-13.22279 -2.35288,-3.07821 -6.90308,-9.0134 -10.11155,-13.18931 -3.20847,-4.17592 -6.35861,-8.36989 -7.0003,-9.31993 -0.6417,-0.95005 -3.26681,-4.4291 -5.83359,-7.73123 -5.27836,-6.79055 -12.39488,-16.05432 -19.83418,-25.81873 -2.78068,-3.64976 -7.33087,-9.59818 -10.11155,-13.21873 -2.78068,-3.62054 -7.33087,-9.55718 -10.11155,-13.19253 -2.78067,-3.63535 -7.4081,-9.66768 -10.28317,-13.40518 -2.87507,-3.7375 -5.75724,-7.49548 -6.40481,-8.35107 -0.64758,-0.85559 -2.14541,-2.81138 -3.32852,-4.3462 -1.18312,-1.53481 -2.85115,-3.76789 -3.70674,-4.96239 -0.85559,-1.19451 -2.25565,-2.99518 -3.11125,-4.00148 -0.85559,-1.0063 -2.78067,-3.49842 -4.27796,-5.53805 -1.49728,-2.03962 -3.07235,-4.08814 -3.50015,-4.55227 -0.42779,-0.46412 -1.47784,-1.80763 -2.33343,-2.98557 -2.92124,-4.02184 -6.99914,-9.38789 -7.77811,-10.23512 -0.4278,-0.46528 -1.39643,-1.69127 -2.15252,-2.72444 -2.80194,-3.82874 -8.01496,-10.68346 -9.77844,-12.85788 -1.00067,-1.23387 -3.38437,-4.34348 -5.29712,-6.91026 -1.91274,-2.56677 -5.99422,-7.94716 -9.06995,-11.95641 -3.07573,-4.00925 -6.11002,-8.03442 -6.74286,-8.94483 -0.63284,-0.9104 -3.33885,-4.4554 -6.01335,-7.87777 -5.13458,-6.57038 -5.52345,-7.07744 -10.13886,-13.22069 -1.60614,-2.13783 -3.27028,-4.26764 -3.69807,-4.73292 -0.4278,-0.46528 -1.47784,-1.80974 -2.33344,-2.98768 -2.92123,-4.02183 -6.99913,-9.38788 -7.77811,-10.23512 -0.42779,-0.46527 -1.47784,-1.8088 -2.33343,-2.98562 -2.06088,-2.8346 -9.84625,-13.07509 -10.69091,-14.06227 -0.36603,-0.4278 -2.13549,-2.743417 -3.93213,-5.145821 -1.79664,-2.402405 -4.08535,-5.377533 -5.08603,-6.611396 -1.00067,-1.233863 -3.3825,-4.343478 -5.29294,-6.910255 -1.91044,-2.566777 -5.99192,-7.957628 -9.06995,-11.979668 -3.07803,-4.022041 -6.10716,-8.047214 -6.73139,-8.94483 -0.62424,-0.897616 -3.25546,-4.257142 -5.84717,-7.465614 -2.5917,-3.208471 -5.330801,-6.80243 -6.086886,-7.986574 -1.244163,-1.948551 -1.256343,-2.198407 -0.128269,-2.63129 2.213672,-0.849465 38.760075,0.187255 40.560055,1.150577 1.4982,0.801812 3.24116,2.949212 12.69452,15.640139 4.83808,6.495009 11.42564,15.14485 13.71421,18.007532 1.22701,1.534815 2.8577,3.634906 3.62375,4.666868 9.70612,13.075232 14.75203,19.751792 17.66355,23.371742 1.92508,2.3935 4.02517,5.11357 4.66687,6.0446 2.3648,3.43109 13.71898,18.516 17.11185,22.73441 1.92508,2.3935 4.02517,5.11358 4.66686,6.04461 1.89238,2.74564 13.35351,18.01943 16.7247,22.28831 1.71022,2.16563 3.73485,4.79074 4.49918,5.83359 1.39803,1.90747 16.59794,22.1157 23.10695,30.72061 1.92265,2.54175 3.67272,4.79637 3.88906,5.01026 0.21632,0.2139 0.74333,0.9597 1.17113,1.65733 0.97126,1.58391 15.95537,21.46379 20.19373,26.79166 4.00181,5.03051 5.9554,7.57688 7.41857,9.6696 0.64169,0.91779 5.19189,6.99737 10.11155,13.51018 4.91965,6.5128 10.5179,13.92386 12.44056,16.46902 1.92265,2.54516 3.67272,4.80258 3.88906,5.01647 0.21632,0.2139 0.74333,0.96116 1.17113,1.66058 0.95195,1.55639 15.30263,20.53611 21.97468,29.06297 5.16846,6.60529 5.58395,7.16079 6.80434,9.09718 1.3891,2.20409 20.0784,26.71729 24.94561,32.71907 0.61109,0.75353 1.11107,1.59921 1.11107,1.87927 0,0.28008 0.55206,1.06361 1.22681,1.74119 0.67475,0.67758 7.99057,10.29541 16.25737,21.37295 8.26681,11.07754 15.58298,20.78618 16.25816,21.57474 0.67519,0.78855 2.07885,2.78219 3.11926,4.4303 1.04041,1.64811 2.37316,3.48998 2.96168,4.09304 1.24916,1.28004 4.51196,6.49848 4.51196,7.21632 0,0.27036 -8.48787,0.47748 -18.86193,0.46028 l -18.86192,-0.0313 z"
     id="path3" />
</svg>
