<?xml version="1.0" encoding="UTF-8" standalone="no"?>
<svg
   shape-rendering="geometricPrecision"
   text-rendering="geometricPrecision"
   image-rendering="optimizeQuality"
   fill-rule="evenodd"
   clip-rule="evenodd"
   viewBox="0 0 509.10773 462.01989"
   version="1.1"
   id="svg1"
   width="509.10773"
   height="462.0199"
   xmlns="http://www.w3.org/2000/svg"
   xmlns:svg="http://www.w3.org/2000/svg">
  <defs
     id="defs1" />
  <path
     style="display:inline;opacity:1;fill:#0ba2ba;fill-opacity:1;stroke-width:0.779123"
     d="M 11.484656,460.26686 C 13.541762,457.99681 173.11242,275.33769 184.10411,262.67091 l 8.35871,-9.63256 -1.69623,-2.44385 C 187.00037,245.16829 148.54458,194.71697 18.164714,24.152811 L 0,0.38956145 79.684872,0.188792 C 123.51155,0.07836878 159.74701,0.1316111 160.2081,0.3071082 c 0.89622,0.34110324 2.48416,2.4153252 67.36536,87.9945538 23.33746,30.782428 43.05337,56.727228 43.81313,57.655098 l 1.38141,1.68703 3.20425,-3.50605 c 1.76234,-1.92833 30.91267,-35.14818 64.77851,-73.821897 L 402.32503,0 h 38.53273 c 36.28007,0 38.47022,0.0780381 37.46343,1.3348709 -0.58811,0.734179 -33.68532,38.6872041 -73.54934,84.3400561 -84.43609,96.697423 -93.75056,107.440443 -94.71364,109.239983 -0.86493,1.61614 -8.80719,-9.08086 108.36522,145.95137 49.55226,65.56319 90.35579,119.64406 90.67452,120.17971 0.46205,0.7765 -15.28763,0.9739 -77.70446,0.9739 h -78.28396 l -47.85035,-62.52461 c -48.71646,-63.65634 -72.34991,-94.45442 -74.79182,-97.46543 l -1.36082,-1.67796 -3.31392,3.71234 c -1.82266,2.0418 -33.64128,38.39337 -70.70806,80.78128 l -67.39413,77.06891 -38.897177,0.0527 -38.8971774,0.0527 z M 417.25323,415.28253 c 0.49029,-0.79329 -6.76411,-10.45336 -178.02339,-237.05886 L 137.5543,43.689433 114.81094,43.660158 c -14.41605,-0.01856 -22.920406,0.25717 -23.226874,0.753055 -0.567552,0.918313 -3.831633,-3.385211 157.384814,207.503707 l 125.43878,164.0878 21.18512,0.0235 c 13.12521,0.0145 21.36596,-0.26915 21.66045,-0.74565 z"
     id="path9" />
  <path
     style="display:inline;opacity:1;fill:#d8f1f4;fill-opacity:1;stroke-width:0.779123"
     d="M 234.87774,232.05421 C 157.78138,131.28414 94.054547,47.840077 93.26256,46.622955 l -1.439976,-2.212948 h 22.506436 22.50644 L 273.93095,225.65372 c 75.40252,99.68404 138.43798,183.12811 140.07882,185.43125 l 2.98331,4.18754 H 396.023 375.05293 Z"
     id="path10" />
</svg>
