<?xml version="1.0" encoding="UTF-8" standalone="no"?>
<svg
   shape-rendering="geometricPrecision"
   text-rendering="geometricPrecision"
   image-rendering="optimizeQuality"
   fill-rule="evenodd"
   clip-rule="evenodd"
   viewBox="0 0 509.10773 462.01989"
   version="1.1"
   id="svg1"
   width="509.10773"
   height="462.0199"
   xmlns="http://www.w3.org/2000/svg"
   xmlns:svg="http://www.w3.org/2000/svg">
  <defs
     id="defs1" />
  <path
     style="display:inline;opacity:1;fill:#0ba2ba;fill-opacity:1;stroke-width:0.779123"
     d="M 11.484656,460.26686 C 13.541762,457.99681 173.11242,275.33769 184.10411,262.67091 l 8.35871,-9.63256 -1.69623,-2.44385 C 187.00037,245.16829 148.54458,194.71697 18.164714,24.152811 L 0,0.38956145 79.684872,0.188792 C 123.51155,0.07836878 159.74701,0.1316111 160.2081,0.3071082 c 0.89622,0.34110324 2.48416,2.4153252 67.36536,87.9945538 23.33746,30.782428 43.05337,56.727228 43.81313,57.655098 l 1.38141,1.68703 3.20425,-3.50605 c 1.76234,-1.92833 30.91267,-35.14818 64.77851,-73.821897 L 402.32503,0 h 38.53273 c 36.28007,0 38.47022,0.0780381 37.46343,1.3348709 -0.58811,0.734179 -33.68532,38.6872041 -73.54934,84.3400561 -84.43609,96.697423 -93.75056,107.440443 -94.71364,109.239983 -0.86493,1.61614 -8.80719,-9.08086 108.36522,145.95137 49.55226,65.56319 90.35579,119.64406 90.67452,120.17971 0.46205,0.7765 -15.28763,0.9739 -77.70446,0.9739 h -78.28396 l -47.85035,-62.52461 c -48.71646,-63.65634 -72.34991,-94.45442 -74.79182,-97.46543 l -1.36082,-1.67796 -3.31392,3.71234 c -1.82266,2.0418 -33.64128,38.39337 -70.70806,80.78128 l -67.39413,77.06891 -38.897177,0.0527 -38.8971774,0.0527 z M 417.25323,415.28253 c 0.49029,-0.79329 -6.76411,-10.45336 -178.02339,-237.05886 L 137.5543,43.689433 114.81094,43.660158 c -14.41605,-0.01856 -22.920406,0.25717 -23.226874,0.753055 -0.567552,0.918313 -3.831633,-3.385211 157.384814,207.503707 l 125.43878,164.0878 21.18512,0.0235 c 13.12521,0.0145 21.36596,-0.26915 21.66045,-0.74565 z"
     id="path9" />
  <path
     style="opacity:1;fill:#d8f1f4;fill-opacity:0.05;stroke-width:0.779123"
     d="m 385.36934,415.27251 -8.90597,-0.38956 -4.72868,-5.53332 c -2.60078,-3.04333 -6.74477,-8.12711 -9.20885,-11.29728 -2.4641,-3.17018 -4.75365,-6.11457 -5.08791,-6.54308 -6.30088,-8.07765 -9.73751,-12.07641 -10.37873,-12.07641 -0.43556,0 -0.61491,-0.2864 -0.39857,-0.63646 0.49183,-0.79579 -6.2611,-9.49214 -7.37087,-9.49214 -0.44754,0 -0.61185,-0.32661 -0.36514,-0.72581 0.24672,-0.3992 -0.33651,-1.27571 -1.29606,-1.94781 -0.95955,-0.67209 -1.47557,-1.22199 -1.14671,-1.22199 0.32887,0 -1.5372,-2.80484 -4.14682,-6.23298 -2.60962,-3.42815 -5.10031,-6.23299 -5.53486,-6.23299 -0.43455,0 -0.63693,-0.26295 -0.44972,-0.58434 0.1872,-0.32139 -1.92297,-3.56449 -4.68927,-7.20689 -2.7663,-3.6424 -8.05127,-10.6545 -11.74438,-15.58246 -3.69311,-4.92795 -9.36322,-12.33765 -12.60023,-16.46599 -3.23702,-4.12835 -7.55474,-9.73804 -9.59492,-12.46597 -2.04018,-2.72794 -6.06652,-8.11533 -8.94742,-11.97199 -2.88091,-3.85666 -5.41984,-7.18741 -5.64206,-7.40167 -0.22224,-0.21426 -3.55861,-4.59463 -7.41416,-9.73416 -3.85555,-5.13954 -7.3607,-9.7278 -7.78922,-10.19616 -0.42852,-0.46835 -2.88276,-3.61057 -5.45386,-6.98272 -2.57111,-3.37213 -5.72655,-7.25683 -7.01211,-8.63265 -1.28555,-1.37581 -2.43573,-2.91344 -2.55596,-3.41696 -0.37393,-1.56606 -8.75909,-11.68034 -9.68348,-11.68034 -0.48169,0 -0.6559,-0.2199 -0.38713,-0.48865 0.62591,-0.62592 -3.37081,-6.44459 -7.16962,-10.43798 -1.61572,-1.69847 -2.83308,-3.19272 -2.70524,-3.32056 0.43558,-0.43558 -9.12958,-12.24298 -9.91803,-12.24298 -0.43187,0 -0.60916,-0.28488 -0.39398,-0.63304 0.47056,-0.76139 -8.63317,-12.61205 -9.68864,-12.61205 -0.40658,0 -0.65159,-0.30992 -0.54446,-0.68871 0.25818,-0.91288 -6.91726,-10.70693 -8.82134,-12.04059 -0.82067,-0.57481 -1.35387,-1.18898 -1.1849,-1.3648 0.16897,-0.17582 -1.96652,-3.29982 -4.74552,-6.94222 -2.77902,-3.6424 -8.5039,-11.18042 -12.72196,-16.75115 -4.21806,-5.57072 -8.88124,-11.44336 -10.36263,-13.0503 -1.48138,-1.60695 -2.47083,-2.93338 -2.19878,-2.94764 0.27205,-0.0143 -0.27931,-0.67194 -1.22525,-1.46152 -0.94594,-0.78958 -1.5739,-1.5816 -1.39547,-1.76003 0.48128,-0.48128 -8.91718,-12.33498 -9.78004,-12.33498 -0.40659,0 -0.6516,-0.31578 -0.54447,-0.70173 0.20848,-0.75105 -1.69935,-3.39117 -13.70272,-18.9623 -4.21549,-5.468455 -8.00519,-9.942646 -8.42156,-9.942646 -0.41636,0 -0.54743,-0.339138 -0.29125,-0.75364 0.25618,-0.414502 -0.24904,-1.20005 -1.1227,-1.745661 -0.87367,-0.545611 -1.58848,-1.444596 -1.58848,-1.997743 0,-0.553146 -0.52591,-1.207531 -1.16869,-1.454188 -0.64277,-0.246656 -1.16868,-0.818 -1.16868,-1.269653 0,-1.184619 -8.46262,-12.257187 -9.36801,-12.257187 -0.41832,0 -0.76059,-0.367523 -0.76059,-0.816718 0,-0.449194 -2.71719,-4.377936 -6.0382,-8.730537 C 96.655262,50.919251 93.840581,46.518559 94.743083,45.616057 95.212636,45.146504 103.67646,44.737359 115.955,44.590662 l 20.43061,-0.244092 4.67474,6.220599 c 2.57111,3.421329 5.13369,6.240445 5.69462,6.264701 0.56094,0.02426 0.80154,0.397398 0.53467,0.829203 -0.56089,0.907546 1.52512,3.277186 2.24831,2.553998 0.26527,-0.265272 0.48232,0.128998 0.48232,0.876157 0,0.747159 1.02484,2.383317 2.27743,3.635907 1.25259,1.25259 2.04145,2.2891 1.75303,2.303357 -0.28843,0.01426 0.30329,0.715467 1.31493,1.558246 1.01164,0.842778 1.56408,1.532325 1.22765,1.532325 -0.33643,0 0.0966,0.788862 0.96239,1.753026 0.86573,0.964165 3.2922,4.207264 5.39214,7.206887 4.80867,6.868871 5.62423,7.924716 8.49831,11.00209 1.28555,1.376489 2.44111,2.930819 2.56791,3.454066 0.34206,1.411501 5.68408,7.748848 6.53184,7.748848 0.40218,0 0.52939,0.32662 0.28267,0.72581 -0.24672,0.3992 0.34615,1.28247 1.31748,1.96281 0.97133,0.68035 1.59076,1.353 1.3765,1.49477 -0.68817,0.45534 45.81992,62.03404 47.27318,62.59171 0.56292,0.21602 0.84786,0.67693 0.6332,1.02426 -0.21467,0.34734 0.43866,1.62537 1.45183,2.84008 1.01316,1.2147 5.06632,6.52171 9.00701,11.79334 3.94068,5.27162 7.66993,9.77858 8.2872,10.01545 0.61728,0.23687 0.95332,0.70413 0.74676,1.03835 -0.46307,0.74927 5.67889,8.57852 6.72975,8.57852 0.41736,0 0.55698,0.32662 0.31026,0.72582 -0.24672,0.3992 0.33651,1.27571 1.29606,1.9478 0.95955,0.6721 1.49616,1.222 1.19246,1.222 -0.3037,0 2.2857,3.769 5.75422,8.37557 3.46851,4.60656 6.48133,8.81383 6.69516,9.34947 0.21382,0.53565 0.87716,0.97391 1.47409,0.97391 0.59692,0 1.02966,0.26295 0.96163,0.58434 -0.24235,1.14492 1.07817,3.29486 1.76358,2.87125 0.38361,-0.23708 0.69748,0.14251 0.69748,0.84354 0,0.70102 1.02485,2.29944 2.27744,3.55203 1.25259,1.25259 2.04145,2.2891 1.75303,2.30336 -0.28843,0.0143 0.30329,0.71546 1.31492,1.55824 1.01165,0.84278 1.53756,1.54399 1.16869,1.55825 -0.36886,0.0143 0.0306,0.64004 0.88759,1.39063 0.85704,0.75058 1.67401,1.87507 1.8155,2.49885 0.14149,0.62378 0.52467,1.31277 0.85154,1.53109 0.32686,0.21831 3.05606,3.72768 6.06489,7.7986 3.00883,4.07091 6.53531,8.54113 7.83662,9.93381 1.30131,1.39269 2.13771,2.54382 1.85865,2.55807 -0.27906,0.0143 0.32033,0.71547 1.33197,1.55825 1.01164,0.84278 1.53755,1.54399 1.16868,1.55825 -0.36886,0.0143 0.15705,0.71546 1.16868,1.55824 1.01165,0.84278 1.53756,1.54399 1.16869,1.55825 -0.36886,0.0143 0.15705,0.71547 1.16868,1.55824 1.01165,0.84278 1.53756,1.54399 1.16869,1.55825 -0.36886,0.0143 0.15705,0.71547 1.16868,1.55824 1.01165,0.84278 1.61686,1.53233 1.34493,1.53233 -0.43315,0 7.77619,11.44786 8.93945,12.46597 0.2448,0.21425 1.56753,2.03933 2.93939,4.05572 1.37188,2.01639 3.18718,4.15147 4.03402,4.74462 0.84685,0.59315 1.33251,1.28567 1.07924,1.53894 -0.25326,0.25326 0.27488,0.9197 1.17364,1.48099 0.89877,0.56129 1.63412,1.4731 1.63412,2.02624 0,0.55315 0.5239,1.20676 1.16421,1.45248 0.64032,0.24571 0.98506,0.73663 0.76609,1.09092 -0.21897,0.35429 0.38697,1.19407 1.34652,1.86617 0.95955,0.67209 1.40367,1.23365 0.98694,1.24791 -0.41674,0.0143 0.0465,0.69647 1.0295,1.51603 0.98296,0.81956 1.68418,1.67523 1.55825,1.90149 -0.12593,0.22627 0.89602,1.73533 2.271,3.35349 1.37498,1.61816 4.61522,5.93826 7.20053,9.60023 2.58531,3.66197 5.89018,7.95689 7.34415,9.54426 1.45398,1.58737 2.421,2.89779 2.14895,2.91205 -0.27206,0.0143 0.33306,0.71547 1.34469,1.55824 1.01165,0.84278 1.53756,1.54399 1.16869,1.55825 -0.36886,0.0143 0.15705,0.71547 1.16868,1.55825 1.01165,0.84277 1.57155,1.53232 1.24425,1.53232 -0.32729,0 0.1534,0.64915 1.0682,1.44256 0.91481,0.79341 1.46023,1.64563 1.21203,1.89382 -0.24819,0.2482 0.28409,0.9105 1.18286,1.47179 0.89876,0.56129 1.63411,1.4731 1.63411,2.02624 0,0.55315 0.52591,1.20753 1.16869,1.45419 0.64278,0.24666 1.16868,0.94787 1.16868,1.55824 0,0.61038 0.52591,1.31159 1.16869,1.55825 0.64277,0.24666 1.16868,0.94787 1.16868,1.55825 0,0.61038 0.52591,1.31159 1.16869,1.55824 0.64277,0.24666 1.17842,0.84921 1.19032,1.33902 0.0119,0.48979 1.06373,1.91314 2.33737,3.16299 1.27365,1.24983 2.31573,2.57297 2.31573,2.9403 0,0.62457 17.8539,24.51679 25.15048,33.65655 1.80812,2.26489 3.81341,4.92512 4.45619,5.91163 0.64278,0.98651 1.96303,2.76617 2.93389,3.95481 1.61211,1.97371 1.65796,2.26839 0.52869,3.39767 -0.68008,0.68008 -1.82503,1.25904 -2.54433,1.28656 -0.71929,0.0275 -3.58675,0.20885 -6.37211,0.40293 -2.78537,0.19408 -6.29142,0.43451 -7.79123,0.53429 -1.49981,0.0998 -6.73461,0.006 -11.63289,-0.20815 z"
     id="path30" />
</svg>
