<?xml version="1.0" encoding="UTF-8" standalone="no"?>
<svg
   shape-rendering="geometricPrecision"
   text-rendering="geometricPrecision"
   image-rendering="optimizeQuality"
   fill-rule="evenodd"
   clip-rule="evenodd"
   viewBox="0 0 509.10773 462.01989"
   version="1.1"
   id="svg1"
   width="509.10773"
   height="462.0199"
   xmlns="http://www.w3.org/2000/svg"
   xmlns:svg="http://www.w3.org/2000/svg">
  <defs
     id="defs1" />
  <path
     style="display:inline;opacity:1;fill:#0ba2ba;fill-opacity:1;stroke-width:0.779123"
     d="M 11.484656,460.26686 C 13.541762,457.99681 173.11242,275.33769 184.10411,262.67091 l 8.35871,-9.63256 -1.69623,-2.44385 C 187.00037,245.16829 148.54458,194.71697 18.164714,24.152811 L 0,0.38956145 79.684872,0.188792 C 123.51155,0.07836878 159.74701,0.1316111 160.2081,0.3071082 c 0.89622,0.34110324 2.48416,2.4153252 67.36536,87.9945538 23.33746,30.782428 43.05337,56.727228 43.81313,57.655098 l 1.38141,1.68703 3.20425,-3.50605 c 1.76234,-1.92833 30.91267,-35.14818 64.77851,-73.821897 L 402.32503,0 h 38.53273 c 36.28007,0 38.47022,0.0780381 37.46343,1.3348709 -0.58811,0.734179 -33.68532,38.6872041 -73.54934,84.3400561 -84.43609,96.697423 -93.75056,107.440443 -94.71364,109.239983 -0.86493,1.61614 -8.80719,-9.08086 108.36522,145.95137 49.55226,65.56319 90.35579,119.64406 90.67452,120.17971 0.46205,0.7765 -15.28763,0.9739 -77.70446,0.9739 h -78.28396 l -47.85035,-62.52461 c -48.71646,-63.65634 -72.34991,-94.45442 -74.79182,-97.46543 l -1.36082,-1.67796 -3.31392,3.71234 c -1.82266,2.0418 -33.64128,38.39337 -70.70806,80.78128 l -67.39413,77.06891 -38.897177,0.0527 -38.8971774,0.0527 z M 417.25323,415.28253 c 0.49029,-0.79329 -6.76411,-10.45336 -178.02339,-237.05886 L 137.5543,43.689433 114.81094,43.660158 c -14.41605,-0.01856 -22.920406,0.25717 -23.226874,0.753055 -0.567552,0.918313 -3.831633,-3.385211 157.384814,207.503707 l 125.43878,164.0878 21.18512,0.0235 c 13.12521,0.0145 21.36596,-0.26915 21.66045,-0.74565 z"
     id="path9" />
  <path
     style="opacity:1;fill:#d8f1f4;fill-opacity:0.2;stroke-width:0.779123"
     d="m 377.32919,414.73541 c -1.42135,-0.37142 -13.03476,-14.63622 -29.02214,-35.648 -9.1358,-12.00694 -20.03908,-26.27504 -42.07264,-55.0565 -5.99925,-7.83655 -13.82062,-18.12322 -17.38082,-22.85926 -3.56021,-4.73605 -7.29445,-9.66281 -8.29831,-10.94836 -2.97326,-3.8076 -25.04492,-32.61939 -47.16886,-61.57306 C 222.0307,213.78897 207.99243,195.4432 202.19027,187.88186 117.01045,76.876134 93.923414,46.59109 93.923414,45.859878 c 0,-1.059301 39.032866,-1.96948 41.635226,-0.970862 0.76467,0.29343 8.6504,10.210293 17.52386,22.037472 16.04134,21.381052 75.83391,100.536242 93.93064,124.348192 5.21069,6.85628 16.61209,21.93231 25.33646,33.50228 19.52511,25.89356 37.71912,49.95785 47.12502,62.32984 3.90941,5.14221 12.60956,16.62453 19.33369,25.51627 14.70989,19.45185 34.39604,45.44357 42.97576,56.7411 14.24334,18.75524 18.31854,24.0727 24.0417,31.37042 6.08257,7.756 8.76413,12.01329 8.02957,12.74785 -1.33361,1.33361 -32.1697,2.39139 -36.52615,1.25297 z"
     id="path27" />
</svg>
