<?xml version="1.0" encoding="UTF-8"?>
<!-- Uploaded to: SVG Repo, www.svgrepo.com, Transformed by: SVG Repo Mixer Tools -->
<svg xmlns="http://www.w3.org/2000/svg" fill="#0ba2ba" width="800px" height="800px" viewBox="0 0 256 256" id="Flat" stroke="#0ba2ba">
  <g id="SVGRepo_bgCarrier" stroke-width="0"></g>
  <g id="SVGRepo_tracerCarrier" stroke-linecap="round" stroke-linejoin="round"></g>
  <g id="SVGRepo_iconCarrier">
    <path d="M98.91162,157.08789A71.531,71.531,0,0,1,120,208a8,8,0,0,1-16,0,56.00027,56.00027,0,0,0-56-56,8,8,0,0,1,0-16A71.53147,71.53147,0,0,1,98.91162,157.08789ZM48,88a8,8,0,0,0,0,16A104.00181,104.00181,0,0,1,152,208a8,8,0,0,0,16,0A120.00093,120.00093,0,0,0,48,88Zm118.794,1.20605A166.90564,166.90564,0,0,0,48,40a8,8,0,0,0,0,16,151.00491,151.00491,0,0,1,107.48047,44.52051A151.00325,151.00325,0,0,1,200,208a8,8,0,0,0,16,0A166.902,166.902,0,0,0,166.794,89.20605ZM52,192a12,12,0,1,0,12,12A12.01343,12.01343,0,0,0,52,192Z"></path>
  </g>
</svg>
